<?xml version="1.0" encoding="UTF-8" standalone="no"?>
<!-- Generated by graphviz version 2.40.1 (20161225.0304)
 -->

<!-- Title: state transitions Pages: 1 -->

<svg
   width="320pt"
   height="376pt"
   viewBox="0.00 0.00 320.06 376.00"
   version="1.1"
   id="svg108"
   sodipodi:docname="packet_control_0.svg"
   inkscape:version="1.2.2 (b0a8486541, 2022-12-01)"
   inkscape:export-filename="packet_control_0.pdf"
   inkscape:export-xdpi="399.958"
   inkscape:export-ydpi="399.958"
   xmlns:inkscape="http://www.inkscape.org/namespaces/inkscape"
   xmlns:sodipodi="http://sodipodi.sourceforge.net/DTD/sodipodi-0.dtd"
   xmlns="http://www.w3.org/2000/svg"
   xmlns:svg="http://www.w3.org/2000/svg">
  <defs
     id="defs112" />
  <sodipodi:namedview
     id="namedview110"
     pagecolor="#ffffff"
     bordercolor="#999999"
     borderopacity="1"
     inkscape:showpageshadow="0"
     inkscape:pageopacity="0"
     inkscape:pagecheckerboard="0"
     inkscape:deskcolor="#d1d1d1"
     inkscape:document-units="pt"
     showgrid="false"
     inkscape:zoom="1.0343751"
     inkscape:cx="252.80963"
     inkscape:cy="252.80963"
     inkscape:window-width="1920"
     inkscape:window-height="1008"
     inkscape:window-x="0"
     inkscape:window-y="0"
     inkscape:window-maximized="1"
     inkscape:current-layer="graph0" />
  <g
     id="graph0"
     class="graph"
     transform="scale(1 1) rotate(0) translate(4 372)">
    <title
       id="title2">state transitions</title>
    <polygon
       fill="#ffffff"
       stroke="transparent"
       points="-4,4 -4,-372 316.055,-372 316.055,4 -4,4"
       id="polygon4" />
    <!-- next_state -->
    <!-- await_fr1 -->
    <g
       id="node2"
       class="node state regular">
      <title
         id="title13">await_fr1</title>
      <polygon
         fill="#ffffff"
         fill-opacity="0.003922"
         stroke="transparent"
         stroke-width="2"
         points="198,-322 128,-322 128,-286 198,-286 198,-322"
         id="polygon15" />
      <text
         text-anchor="start"
         x="138.6634"
         y="-300.2"
         font-family="Helvetica,sans-Serif"
         font-size="12.00"
         fill="#000000"
         id="text17">await_fr1</text>
      <path
         fill="none"
         stroke="#000000"
         stroke-width="2"
         d="M140.3333,-287C140.3333,-287 185.6667,-287 185.6667,-287 191.3333,-287 197,-292.6667 197,-298.3333 197,-298.3333 197,-309.6667 197,-309.6667 197,-315.3333 191.3333,-321 185.6667,-321 185.6667,-321 140.3333,-321 140.3333,-321 134.6667,-321 129,-315.3333 129,-309.6667 129,-309.6667 129,-298.3333 129,-298.3333 129,-292.6667 134.6667,-287 140.3333,-287"
         id="path19" />
    </g>
    <!-- receiving_fr1 -->
    <g
       id="node3"
       class="node state regular">
      <title
         id="title22">receiving_fr1</title>
      <polygon
         fill="#ffffff"
         fill-opacity="0.003922"
         stroke="transparent"
         stroke-width="2"
         points="134,-228 44,-228 44,-192 134,-192 134,-228"
         id="polygon24" />
      <text
         text-anchor="start"
         x="54.6626"
         y="-206.2"
         font-family="Helvetica,sans-Serif"
         font-size="12.00"
         fill="#000000"
         id="text26">receiving_fr1</text>
      <path
         fill="none"
         stroke="#000000"
         stroke-width="2"
         d="M56.3333,-193C56.3333,-193 121.6667,-193 121.6667,-193 127.3333,-193 133,-198.6667 133,-204.3333 133,-204.3333 133,-215.6667 133,-215.6667 133,-221.3333 127.3333,-227 121.6667,-227 121.6667,-227 56.3333,-227 56.3333,-227 50.6667,-227 45,-221.3333 45,-215.6667 45,-215.6667 45,-204.3333 45,-204.3333 45,-198.6667 50.6667,-193 56.3333,-193"
         id="path28" />
    </g>
    <!-- await_fr1&#45;&gt;receiving_fr1 -->
    <g
       id="edge1"
       class="edge transition">
      <title
         id="title31">await_fr1-&gt;receiving_fr1</title>
      <path
         fill="none"
         stroke="#000000"
         d="M127.8713,-297.2324C99.8557,-291.0372 63.9117,-281.02 55.176,-269 47.6534,-258.6491 52.5618,-246.4883 60.7244,-235.9051"
         id="path33" />
      <polygon
         fill="#000000"
         stroke="#000000"
         points="63.5258,-238.0175 67.4487,-228.1757 58.2446,-233.423 63.5258,-238.0175"
         id="polygon35" />
      <text
         text-anchor="start"
         x="55"
         y="-254"
         font-family="Helvetica,sans-Serif"
         font-size="10.00"
         fill="#000000"
         id="text37">fr_start = '1'   </text>
    </g>
    <!-- receiving_fr1&#45;&gt;await_fr1 -->
    <g
       id="edge3"
       class="edge transition">
      <title
         id="title40">receiving_fr1-&gt;await_fr1</title>
      <path
         fill="none"
         stroke="#000000"
         d="M103.5758,-228.1312C107.91,-233.5465 112.6593,-239.504 117,-245 125.4275,-255.6706 134.6548,-267.4805 142.6186,-277.7135"
         id="path42" />
      <polygon
         fill="#000000"
         stroke="#000000"
         points="140.0651,-280.1315 148.9657,-285.8787 145.5917,-275.8354 140.0651,-280.1315"
         id="polygon44" />
      <text
         text-anchor="start"
         x="135"
         y="-260"
         font-family="Helvetica,sans-Serif"
         font-size="10.00"
         fill="#000000"
         id="text46">fr_end = '1'   </text>
      <text
         text-anchor="start"
         x="135"
         y="-248"
         font-family="Helvetica,sans-Serif"
         font-size="10.00"
         fill="#000000"
         id="text48">not (fr_error = '0')   </text>
    </g>
    <!-- await_fr2 -->
    <g
       id="node4"
       class="node state regular">
      <title
         id="title51">await_fr2</title>
      <polygon
         fill="#ffffff"
         fill-opacity="0.003922"
         stroke="transparent"
         stroke-width="2"
         points="170,-134 100,-134 100,-98 170,-98 170,-134"
         id="polygon53" />
      <text
         text-anchor="start"
         x="110.6634"
         y="-112.2"
         font-family="Helvetica,sans-Serif"
         font-size="12.00"
         fill="#000000"
         id="text55">await_fr2</text>
      <path
         fill="none"
         stroke="#000000"
         stroke-width="2"
         d="M112.3333,-99C112.3333,-99 157.6667,-99 157.6667,-99 163.3333,-99 169,-104.6667 169,-110.3333 169,-110.3333 169,-121.6667 169,-121.6667 169,-127.3333 163.3333,-133 157.6667,-133 157.6667,-133 112.3333,-133 112.3333,-133 106.6667,-133 101,-127.3333 101,-121.6667 101,-121.6667 101,-110.3333 101,-110.3333 101,-104.6667 106.6667,-99 112.3333,-99"
         id="path57" />
    </g>
    <!-- receiving_fr1&#45;&gt;await_fr2 -->
    <g
       id="edge2"
       class="edge transition">
      <title
         id="title60">receiving_fr1-&gt;await_fr2</title>
      <path
         fill="none"
         stroke="#000000"
         d="M91.9723,-191.9566C94.4525,-179.8731 98.7038,-163.8817 105.517,-151 107.0771,-148.0503 108.9189,-145.1264 110.9079,-142.2992"
         id="path62" />
      <polygon
         fill="#000000"
         stroke="#000000"
         points="113.8377,-144.2318 117.1824,-134.1787 108.2986,-139.9518 113.8377,-144.2318"
         id="polygon64" />
      <text
         text-anchor="start"
         x="105"
         y="-166"
         font-family="Helvetica,sans-Serif"
         font-size="10.00"
         fill="#000000"
         id="text66">fr_error = '0'   </text>
      <text
         text-anchor="start"
         x="105"
         y="-154"
         font-family="Helvetica,sans-Serif"
         font-size="10.00"
         fill="#000000"
         id="text68">fr_end = '1'   </text>
    </g>
    <!-- await_fr2&#45;&gt;await_fr1 -->
    <g
       id="edge4"
       class="edge transition"
       style="stroke-width:1.00018752;stroke-dasharray:none">
      <title
         id="title71">await_fr2-&gt;await_fr1</title>
      <path
         fill="none"
         stroke="#000000"
         d="M 155.7325,-134.3228 C 160.5711,-139.3615 165.3656,-145.08 169,-151 c 27.39474,-39.04879 35.90326,-57.02575 57,-94 5.4094,-9.1933 5.4094,-14.8067 0,-24 -4.4694,-7.5958 -11.2488,-13.6614 -18.7286,-18.4638"
         id="path73"
         style="stroke-width:1.00019;stroke-dasharray:none"
         sodipodi:nodetypes="cccsc" />
      <polygon
         fill="#000000"
         stroke="#000000"
         points="205.2602,-284.5795 198.2654,-292.5371 208.6959,-290.6784 205.2602,-284.5795"
         id="polygon75"
         style="stroke-width:1.00018752;stroke-dasharray:none" />
      <text
         text-anchor="start"
         x="244.33107"
         y="50.920296"
         font-family="Helvetica, sans-Serif"
         font-size="10px"
         fill="#000000"
         id="text77"
         style="stroke-width:1.00019;stroke-dasharray:none"
         transform="rotate(-57.032931)">timer_flag = '1'   </text>
    </g>
    <!-- receiving_fr2 -->
    <g
       id="node5"
       class="node state regular"
       transform="translate(70.426541,-139.34414)">
      <title
         id="title80">receiving_fr2</title>
      <polygon
         fill="#ffffff"
         fill-opacity="0.00392199"
         stroke="transparent"
         stroke-width="2"
         points="132,-52 132,-16 222,-16 222,-52 "
         id="polygon82" />
      <text
         text-anchor="start"
         x="142.6626"
         y="-30.200001"
         font-family="Helvetica, sans-Serif"
         font-size="12px"
         fill="#000000"
         id="text84">receiving_fr2</text>
      <path
         fill="none"
         stroke="#000000"
         stroke-width="2"
         d="m 144.3333,-17 c 0,0 65.3334,0 65.3334,0 5.6666,0 11.3333,-5.6667 11.3333,-11.3333 0,0 0,-11.3334 0,-11.3334 C 221,-45.3333 215.3333,-51 209.6667,-51 c 0,0 -65.3334,0 -65.3334,0 -5.6666,0 -11.3333,5.6667 -11.3333,11.3333 0,0 0,11.3334 0,11.3334 0,5.6666 5.6667,11.3333 11.3333,11.3333"
         id="path86" />
    </g>
    <!-- await_fr2&#45;&gt;receiving_fr2 -->
    <g
       id="edge5"
       class="edge transition"
       transform="translate(48.103977,-46.114098)">
      <title
         id="title89">await_fr2-&gt;receiving_fr2</title>
      <path
         fill="none"
         stroke="#000000"
         d="m 121.58897,-70.794845 c 2.9507,8.8931 30.69364,5.54947 48.33935,0.305059 25.50166,-7.579252 32.10177,-40.940914 33.82087,-38.211614"
         id="path91"
         sodipodi:nodetypes="csc" />
      <polygon
         fill="#000000"
         stroke="#000000"
         points="154.1583,-58.6506 159.9692,-62.5535 162.6394,-52.3007 "
         id="polygon93"
         transform="rotate(-120.66395,166.88094,-92.442656)" />
      <text
         text-anchor="start"
         x="151.94945"
         y="-56.800526"
         font-family="Helvetica, sans-Serif"
         font-size="10px"
         fill="#000000"
         id="text95">fr_start = '1'   </text>
    </g>
    <!-- receiving_fr2&#45;&gt;await_fr1 -->
    <g
       id="edge6"
       class="edge transition">
      <title
         id="title98">receiving_fr2-&gt;await_fr1</title>
      <path
         fill="none"
         stroke="#000000"
         d="m 270,-192 c 6.2331,-14.736 5.6405,-21.0272 0,-36 -8.5102,-22.5904 -29.9059,-39.8666 -45,-50 -5.4056,-3.6291 -11.3992,-6.911 -17.4678,-9.8249"
         id="path100"
         sodipodi:nodetypes="cssc" />
      <polygon
         fill="#000000"
         stroke="#000000"
         points="205.699,-284.8112 198.0077,-292.0978 208.5643,-291.1979 205.699,-284.8112"
         id="polygon102" />
      <text
         text-anchor="start"
         x="251.43675"
         y="-260.69592"
         font-family="Helvetica, sans-Serif"
         font-size="10px"
         fill="#000000"
         id="text104">fr_end = '1'   </text>
    </g>
  </g>
</svg>
